<svg width="36" height="36" viewBox="0 0 36 36" fill="none" xmlns="http://www.w3.org/2000/svg">
<rect width="36" height="36" rx="6" fill="#374151"/>
<mask id="mask0_10598_19046" style="mask-type:alpha" maskUnits="userSpaceOnUse" x="6" y="6" width="24" height="24">
<rect x="6" y="6" width="24" height="24" fill="#D9D9D9"/>
</mask>
<g mask="url(#mask0_10598_19046)">
<path d="M13 23H15V18H13V23ZM21 23H23V13H21V23ZM17 23H19V20H17V23ZM17 18H19V16H17V18ZM11 27C10.45 27 9.97917 26.8042 9.5875 26.4125C9.19583 26.0208 9 25.55 9 25V11C9 10.45 9.19583 9.97917 9.5875 9.5875C9.97917 9.19583 10.45 9 11 9H25C25.55 9 26.0208 9.19583 26.4125 9.5875C26.8042 9.97917 27 10.45 27 11V25C27 25.55 26.8042 26.0208 26.4125 26.4125C26.0208 26.8042 25.55 27 25 27H11ZM11 25H25V11H11V25Z" fill="white"/>
</g>
</svg>
